<svg width="16" height="16" viewBox="0 0 16 16" fill="none" xmlns="http://www.w3.org/2000/svg">
<path fill-rule="evenodd" clip-rule="evenodd" d="M5.11313 1.33282H10.8931C13.1531 1.33282 14.6665 2.91949 14.6665 5.27949V10.7268C14.6665 13.0802 13.1531 14.6662 10.8931 14.6662H5.11313C2.85313 14.6662 1.33313 13.0802 1.33313 10.7268V5.27949C1.33313 2.91949 2.85313 1.33282 5.11313 1.33282ZM10.0065 9.99948C10.2331 9.77348 10.2331 9.40682 10.0065 9.18015L8.81979 7.99348L10.0065 6.80615C10.2331 6.58015 10.2331 6.20682 10.0065 5.98015C9.77979 5.75282 9.41313 5.75282 9.17979 5.98015L7.99979 7.16615L6.81313 5.98015C6.57979 5.75282 6.21313 5.75282 5.98646 5.98015C5.75979 6.20682 5.75979 6.58015 5.98646 6.80615L7.17313 7.99348L5.98646 9.17348C5.75979 9.40682 5.75979 9.77348 5.98646 9.99948C6.09979 10.1128 6.25313 10.1735 6.39979 10.1735C6.55313 10.1735 6.69979 10.1128 6.81313 9.99948L7.99979 8.82015L9.18646 9.99948C9.29979 10.1202 9.44646 10.1735 9.59313 10.1735C9.74646 10.1735 9.89313 10.1128 10.0065 9.99948Z" fill="#BEC4D0"/>
</svg>
