<?xml version="1.0" standalone="no"?>
<!DOCTYPE svg PUBLIC "-//W3C//DTD SVG 20010904//EN"
 "http://www.w3.org/TR/2001/REC-SVG-20010904/DTD/svg10.dtd">
<svg version="1.0" xmlns="http://www.w3.org/2000/svg"
 width="512.000000pt" height="512.000000pt" viewBox="0 0 512.000000 512.000000"
 preserveAspectRatio="xMidYMid meet">

<g transform="translate(0.000000,512.000000) scale(0.100000,-0.100000)"
fill="#000000" stroke="none">
<path d="M2380 4386 c-131 -23 -232 -56 -345 -111 -293 -143 -506 -387 -609
-696 -20 -59 -36 -113 -36 -121 0 -11 -29 -17 -135 -27 -338 -29 -622 -160
-854 -392 -481 -481 -534 -1228 -126 -1774 154 -206 398 -383 645 -468 157
-54 266 -69 503 -71 218 -1 219 -1 238 23 24 30 24 76 1 99 -17 17 -43 20
-228 25 -227 7 -287 14 -420 52 -365 106 -673 402 -797 765 -46 134 -61 233
-61 390 0 344 126 638 375 875 223 212 485 319 812 330 70 3 137 9 147 15 20
11 25 25 60 170 28 117 114 285 197 388 139 170 345 303 558 359 88 23 119 26
255 26 135 0 168 -3 255 -27 185 -49 351 -144 484 -277 223 -223 332 -528 300
-840 -15 -150 6 -172 143 -148 90 15 270 15 359 0 201 -34 405 -139 552 -285
138 -136 234 -302 284 -491 23 -88 26 -119 26 -255 0 -136 -3 -167 -26 -255
-101 -377 -375 -652 -757 -759 -116 -32 -258 -36 -1256 -36 -981 0 -994 0
-1014 -20 -25 -25 -26 -71 -1 -101 l19 -24 984 -3 c1047 -3 1156 0 1315 43
387 103 699 392 826 765 46 135 62 233 62 390 0 157 -16 255 -62 390 -122 356
-422 646 -783 753 -134 40 -204 50 -368 50 l-153 0 6 38 c9 53 -11 251 -36
344 -116 449 -469 785 -924 880 -107 23 -319 28 -415 11z"/>
<path d="M2490 3194 c-199 -18 -385 -102 -530 -241 -100 -95 -210 -258 -210
-311 0 -35 38 -72 74 -72 38 0 63 23 96 90 79 156 234 288 407 346 268 90 543
25 743 -176 64 -63 96 -105 127 -165 38 -73 78 -185 67 -185 -2 0 -29 17 -60
37 -34 22 -67 36 -86 36 -51 0 -82 -55 -61 -108 9 -25 270 -195 298 -195 44 0
56 13 144 144 102 152 109 168 86 202 -37 57 -97 50 -141 -16 -15 -22 -29 -38
-32 -36 -2 3 -15 35 -27 71 -54 153 -183 322 -321 421 -159 113 -381 174 -574
158z"/>
<path d="M1703 2368 c-11 -13 -56 -76 -98 -141 -83 -125 -94 -160 -60 -197 21
-23 73 -27 97 -7 8 6 27 29 41 50 l25 39 22 -69 c76 -235 275 -446 504 -534
117 -45 205 -61 336 -60 322 2 606 174 763 464 20 37 37 81 37 97 0 55 -59 87
-111 60 -10 -6 -34 -41 -53 -78 -94 -185 -280 -331 -481 -377 -89 -20 -242
-21 -328 -1 -185 43 -357 168 -456 330 -34 57 -73 149 -85 199 l-7 28 60 -40
c67 -46 110 -52 141 -21 20 20 26 54 14 85 -4 9 -67 57 -140 106 -147 98 -183
109 -221 67z"/>
</g>
</svg>
