<?xml version="1.0" standalone="no"?>
<!DOCTYPE svg PUBLIC "-//W3C//DTD SVG 20010904//EN"
 "http://www.w3.org/TR/2001/REC-SVG-20010904/DTD/svg10.dtd">
<svg version="1.0" xmlns="http://www.w3.org/2000/svg"
 width="512.000000pt" height="512.000000pt" viewBox="0 0 512.000000 512.000000"
 preserveAspectRatio="xMidYMid meet">

<g transform="translate(0.000000,512.000000) scale(0.100000,-0.100000)"
fill="#000000" stroke="none">
<path d="M2220 4924 c-583 -78 -1127 -386 -1506 -854 -269 -333 -457 -742
-528 -1154 -26 -148 -38 -348 -24 -392 24 -70 103 -103 168 -69 47 24 57 58
69 221 21 275 93 540 220 799 118 241 250 426 440 616 329 329 744 535 1198
594 149 20 425 19 562 0 369 -54 705 -196 1015 -429 115 -87 300 -255 338
-308 l21 -30 -300 7 -299 8 -36 -32 c-45 -39 -56 -86 -33 -135 33 -69 31 -69
430 -82 198 -7 397 -15 443 -18 64 -5 89 -3 112 9 63 32 61 14 44 510 -17 486
-17 491 -74 520 -62 32 -136 10 -164 -49 -15 -31 -16 -62 -10 -268 l7 -232
-104 96 c-212 198 -402 330 -644 448 -239 117 -447 182 -703 220 -164 24 -477
26 -642 4z"/>
<path d="M4769 2657 c-42 -28 -58 -71 -58 -162 -2 -190 -62 -472 -145 -678
-199 -490 -518 -868 -948 -1121 -236 -138 -513 -230 -798 -266 -122 -15 -407
-12 -529 5 -471 67 -896 283 -1256 638 l-130 128 307 -7 307 -7 36 36 c30 30
35 42 35 80 0 57 -35 102 -88 116 -20 5 -152 12 -292 16 -140 3 -329 10 -419
15 -185 10 -200 7 -239 -50 -19 -28 -22 -43 -17 -74 3 -22 12 -218 20 -435 7
-218 18 -407 23 -421 16 -41 48 -63 99 -67 39 -4 53 -1 77 18 46 36 57 75 51
186 -2 54 -7 158 -10 232 l-5 134 104 -101 c395 -380 891 -619 1414 -682 117
-13 419 -14 532 0 811 99 1492 591 1860 1345 86 175 153 360 193 530 53 223
73 494 42 555 -31 59 -108 76 -166 37z"/>
</g>
</svg>
