<svg width="22" height="19" viewBox="0 0 22 19" fill="none" xmlns="http://www.w3.org/2000/svg">
<path fill-rule="evenodd" clip-rule="evenodd" d="M10.9725 17.3682C7.73349 17.3682 4.96649 16.8782 4.96649 14.9162C4.96649 12.9542 7.71549 11.2462 10.9725 11.2462C14.2115 11.2462 16.9785 12.9382 16.9785 14.8992C16.9785 16.8602 14.2295 17.3682 10.9725 17.3682Z" stroke="white" stroke-width="1.5" stroke-linecap="round" stroke-linejoin="round"/>
<path fill-rule="evenodd" clip-rule="evenodd" d="M10.9725 8.44876C13.0985 8.44876 14.8225 6.72576 14.8225 4.59976C14.8225 2.47376 13.0985 0.749756 10.9725 0.749756C8.84651 0.749756 7.12251 2.47376 7.12251 4.59976C7.11651 6.71776 8.82651 8.44176 10.9455 8.44876H10.9725Z" stroke="white" stroke-width="1.5" stroke-linecap="round" stroke-linejoin="round"/>
<path d="M17.3622 7.39166C18.5992 7.06066 19.5112 5.93266 19.5112 4.58966C19.5112 3.18866 18.5182 2.01866 17.1962 1.74866" stroke="white" stroke-width="1.5" stroke-linecap="round" stroke-linejoin="round"/>
<path d="M17.9432 10.5444C19.6972 10.5444 21.1952 11.7334 21.1952 12.7954C21.1952 13.4204 20.6782 14.1014 19.8942 14.2854" stroke="white" stroke-width="1.5" stroke-linecap="round" stroke-linejoin="round"/>
<path d="M4.58384 7.39166C3.34584 7.06066 2.43384 5.93266 2.43384 4.58966C2.43384 3.18866 3.42784 2.01866 4.74884 1.74866" stroke="white" stroke-width="1.5" stroke-linecap="round" stroke-linejoin="round"/>
<path d="M4.00182 10.5444C2.24782 10.5444 0.749817 11.7334 0.749817 12.7954C0.749817 13.4204 1.26682 14.1014 2.05182 14.2854" stroke="white" stroke-width="1.5" stroke-linecap="round" stroke-linejoin="round"/>
</svg>
